<mxfile host="Electron" agent="Mozilla/5.0 (Windows NT 10.0; Win64; x64) AppleWebKit/537.36 (KHTML, like Gecko) draw.io/28.0.6 Chrome/138.0.7204.100 Electron/37.2.3 Safari/537.36" version="28.0.6">
  <diagram name="Page-1" id="aKbEeQtsdl4mAVSGx3XR">
    <mxGraphModel dx="1594" dy="570" grid="1" gridSize="10" guides="1" tooltips="1" connect="1" arrows="1" fold="1" page="1" pageScale="1" pageWidth="827" pageHeight="1169" math="0" shadow="0">
      <root>
        <mxCell id="0" />
        <mxCell id="1" parent="0" />
        <mxCell id="azjtCNszmvBXWAblEDcr-1" value="&lt;font style=&quot;font-size: 14px;&quot;&gt;crm_cust_info&lt;/font&gt;" style="swimlane;fontStyle=0;childLayout=stackLayout;horizontal=1;startSize=30;horizontalStack=0;resizeParent=1;resizeParentMax=0;resizeLast=0;collapsible=1;marginBottom=0;whiteSpace=wrap;html=1;swimlaneFillColor=none;rounded=1;glass=0;shadow=0;fillColor=#dae8fc;strokeColor=#6c8ebf;" parent="1" vertex="1">
          <mxGeometry x="200" y="260" width="140" height="100" as="geometry" />
        </mxCell>
        <mxCell id="azjtCNszmvBXWAblEDcr-2" value="&lt;div&gt;&lt;font style=&quot;font-size: 14px;&quot;&gt;cst_id&lt;/font&gt;&lt;/div&gt;&lt;div&gt;&lt;span style=&quot;font-size: 14px; background-color: transparent; color: light-dark(rgb(0, 0, 0), rgb(255, 255, 255));&quot;&gt;cst_key&lt;/span&gt;&lt;/div&gt;" style="text;strokeColor=none;fillColor=none;align=left;verticalAlign=middle;spacingLeft=4;spacingRight=4;overflow=hidden;points=[[0,0.5],[1,0.5]];portConstraint=eastwest;rotatable=0;whiteSpace=wrap;html=1;" parent="azjtCNszmvBXWAblEDcr-1" vertex="1">
          <mxGeometry y="30" width="140" height="50" as="geometry" />
        </mxCell>
        <mxCell id="8URkNJwg9QdLMNfsHHEc-4" value="CUSTOMER" style="text;html=1;strokeColor=#82b366;fillColor=#d5e8d4;align=center;verticalAlign=middle;whiteSpace=wrap;overflow=hidden;rounded=1;gradientColor=#97d077;" vertex="1" parent="azjtCNszmvBXWAblEDcr-1">
          <mxGeometry y="80" width="140" height="20" as="geometry" />
        </mxCell>
        <mxCell id="azjtCNszmvBXWAblEDcr-5" value="&lt;font style=&quot;font-size: 11px;&quot;&gt;CURRENT &amp;amp; HISTORY PRODUCT INFORMATION&lt;/font&gt;" style="rounded=0;whiteSpace=wrap;html=1;" parent="1" vertex="1">
          <mxGeometry x="210" y="110" width="120" as="geometry" />
        </mxCell>
        <mxCell id="azjtCNszmvBXWAblEDcr-12" value="&lt;font style=&quot;font-size: 14px;&quot;&gt;crm_prd_info&lt;/font&gt;" style="swimlane;fontStyle=0;childLayout=stackLayout;horizontal=1;startSize=30;horizontalStack=0;resizeParent=1;resizeParentMax=0;resizeLast=0;collapsible=1;marginBottom=0;whiteSpace=wrap;html=1;swimlaneFillColor=none;rounded=1;glass=0;shadow=0;fillColor=#dae8fc;strokeColor=#6c8ebf;" parent="1" vertex="1">
          <mxGeometry x="200" y="130" width="140" height="60" as="geometry" />
        </mxCell>
        <mxCell id="azjtCNszmvBXWAblEDcr-13" value="&lt;font style=&quot;font-size: 14px;&quot;&gt;prd_info&lt;/font&gt;" style="text;strokeColor=none;fillColor=none;align=left;verticalAlign=middle;spacingLeft=4;spacingRight=4;overflow=hidden;points=[[0,0.5],[1,0.5]];portConstraint=eastwest;rotatable=0;whiteSpace=wrap;html=1;" parent="azjtCNszmvBXWAblEDcr-12" vertex="1">
          <mxGeometry y="30" width="140" height="30" as="geometry" />
        </mxCell>
        <mxCell id="azjtCNszmvBXWAblEDcr-21" value="&lt;span style=&quot;font-size: 14px;&quot;&gt;ero_cust_az12&lt;/span&gt;" style="swimlane;fontStyle=0;childLayout=stackLayout;horizontal=1;startSize=30;horizontalStack=0;resizeParent=1;resizeParentMax=0;resizeLast=0;collapsible=1;marginBottom=0;whiteSpace=wrap;html=1;swimlaneFillColor=none;rounded=1;glass=0;shadow=0;fillColor=#ffff88;strokeColor=#36393d;" parent="1" vertex="1">
          <mxGeometry x="490" y="270" width="140" height="60" as="geometry" />
        </mxCell>
        <mxCell id="azjtCNszmvBXWAblEDcr-22" value="&lt;span style=&quot;font-size: 13px;&quot;&gt;cid&lt;/span&gt;" style="text;strokeColor=none;fillColor=none;align=left;verticalAlign=middle;spacingLeft=4;spacingRight=4;overflow=hidden;points=[[0,0.5],[1,0.5]];portConstraint=eastwest;rotatable=0;whiteSpace=wrap;html=1;" parent="azjtCNszmvBXWAblEDcr-21" vertex="1">
          <mxGeometry y="30" width="140" height="30" as="geometry" />
        </mxCell>
        <mxCell id="azjtCNszmvBXWAblEDcr-31" value="&lt;span style=&quot;font-size: 14px;&quot;&gt;ero_loc_a101&lt;/span&gt;" style="swimlane;fontStyle=0;childLayout=stackLayout;horizontal=1;startSize=30;horizontalStack=0;resizeParent=1;resizeParentMax=0;resizeLast=0;collapsible=1;marginBottom=0;whiteSpace=wrap;html=1;swimlaneFillColor=none;rounded=1;glass=0;shadow=0;fillColor=#ffff88;strokeColor=#36393d;" parent="1" vertex="1">
          <mxGeometry x="490" y="400" width="140" height="60" as="geometry" />
        </mxCell>
        <mxCell id="azjtCNszmvBXWAblEDcr-32" value="&lt;span style=&quot;font-size: 13px;&quot;&gt;cid&lt;/span&gt;" style="text;strokeColor=none;fillColor=none;align=left;verticalAlign=middle;spacingLeft=4;spacingRight=4;overflow=hidden;points=[[0,0.5],[1,0.5]];portConstraint=eastwest;rotatable=0;whiteSpace=wrap;html=1;" parent="azjtCNszmvBXWAblEDcr-31" vertex="1">
          <mxGeometry y="30" width="140" height="30" as="geometry" />
        </mxCell>
        <mxCell id="azjtCNszmvBXWAblEDcr-39" value="&lt;span style=&quot;font-size: 14px;&quot;&gt;erp_px_cat_g1v2&lt;/span&gt;" style="swimlane;fontStyle=0;childLayout=stackLayout;horizontal=1;startSize=30;horizontalStack=0;resizeParent=1;resizeParentMax=0;resizeLast=0;collapsible=1;marginBottom=0;whiteSpace=wrap;html=1;swimlaneFillColor=none;rounded=1;glass=0;shadow=0;fillColor=#ffff88;strokeColor=#36393d;" parent="1" vertex="1">
          <mxGeometry x="490" y="110" width="140" height="60" as="geometry" />
        </mxCell>
        <mxCell id="azjtCNszmvBXWAblEDcr-40" value="&lt;span style=&quot;font-size: 13px;&quot;&gt;id&lt;/span&gt;" style="text;strokeColor=none;fillColor=none;align=left;verticalAlign=middle;spacingLeft=4;spacingRight=4;overflow=hidden;points=[[0,0.5],[1,0.5]];portConstraint=eastwest;rotatable=0;whiteSpace=wrap;html=1;" parent="azjtCNszmvBXWAblEDcr-39" vertex="1">
          <mxGeometry y="30" width="140" height="30" as="geometry" />
        </mxCell>
        <mxCell id="azjtCNszmvBXWAblEDcr-20" style="edgeStyle=orthogonalEdgeStyle;rounded=0;orthogonalLoop=1;jettySize=auto;html=1;" parent="1" edge="1">
          <mxGeometry relative="1" as="geometry">
            <mxPoint x="110" y="240" as="sourcePoint" />
            <mxPoint x="200" y="180" as="targetPoint" />
            <Array as="points">
              <mxPoint x="110" y="230" />
              <mxPoint x="150" y="230" />
              <mxPoint x="150" y="180" />
            </Array>
          </mxGeometry>
        </mxCell>
        <mxCell id="azjtCNszmvBXWAblEDcr-14" value="&lt;font style=&quot;font-size: 14px;&quot;&gt;crm_cust_info&lt;/font&gt;" style="swimlane;fontStyle=0;childLayout=stackLayout;horizontal=1;startSize=30;horizontalStack=0;resizeParent=1;resizeParentMax=0;resizeLast=0;collapsible=1;marginBottom=0;whiteSpace=wrap;html=1;swimlaneFillColor=none;rounded=1;glass=0;shadow=0;fillColor=#dae8fc;strokeColor=#6c8ebf;" parent="1" vertex="1">
          <mxGeometry x="-30" y="190" width="140" height="80" as="geometry" />
        </mxCell>
        <mxCell id="azjtCNszmvBXWAblEDcr-15" value="&lt;font style=&quot;font-size: 14px;&quot;&gt;&amp;nbsp;prd_key&lt;/font&gt;&lt;div&gt;&lt;font style=&quot;font-size: 14px;&quot;&gt;cts_id&lt;/font&gt;&lt;/div&gt;" style="text;strokeColor=none;fillColor=none;align=left;verticalAlign=middle;spacingLeft=4;spacingRight=4;overflow=hidden;points=[[0,0.5],[1,0.5]];portConstraint=eastwest;rotatable=0;whiteSpace=wrap;html=1;" parent="azjtCNszmvBXWAblEDcr-14" vertex="1">
          <mxGeometry y="30" width="140" height="50" as="geometry" />
        </mxCell>
        <mxCell id="azjtCNszmvBXWAblEDcr-23" value="transaction records about sales &amp;amp; orders" style="rounded=0;whiteSpace=wrap;html=1;" parent="1" vertex="1">
          <mxGeometry x="-20" y="170" width="120" as="geometry" />
        </mxCell>
        <mxCell id="azjtCNszmvBXWAblEDcr-24" value="extra customer information(birthdates)" style="rounded=0;whiteSpace=wrap;html=1;" parent="1" vertex="1">
          <mxGeometry x="490" y="250" width="140" as="geometry" />
        </mxCell>
        <mxCell id="azjtCNszmvBXWAblEDcr-42" value="&lt;font style=&quot;font-size: 10px;&quot;&gt;PRODUCT CATEGORIES&lt;/font&gt;" style="rounded=0;whiteSpace=wrap;html=1;" parent="1" vertex="1">
          <mxGeometry x="490" y="100" width="140" as="geometry" />
        </mxCell>
        <mxCell id="azjtCNszmvBXWAblEDcr-34" value="location of customer(country)" style="rounded=0;whiteSpace=wrap;html=1;" parent="1" vertex="1">
          <mxGeometry x="490" y="380" width="140" as="geometry" />
        </mxCell>
        <mxCell id="azjtCNszmvBXWAblEDcr-25" value="customer information" style="rounded=0;whiteSpace=wrap;html=1;" parent="1" vertex="1">
          <mxGeometry x="210" y="250" width="120" as="geometry" />
        </mxCell>
        <mxCell id="azjtCNszmvBXWAblEDcr-35" style="edgeStyle=orthogonalEdgeStyle;rounded=0;orthogonalLoop=1;jettySize=auto;html=1;exitX=0;exitY=0;exitDx=0;exitDy=0;" parent="1" source="azjtCNszmvBXWAblEDcr-34" target="azjtCNszmvBXWAblEDcr-34" edge="1">
          <mxGeometry relative="1" as="geometry" />
        </mxCell>
        <mxCell id="azjtCNszmvBXWAblEDcr-41" style="edgeStyle=orthogonalEdgeStyle;rounded=0;orthogonalLoop=1;jettySize=auto;html=1;entryX=1;entryY=0.233;entryDx=0;entryDy=0;entryPerimeter=0;" parent="1" source="azjtCNszmvBXWAblEDcr-39" target="azjtCNszmvBXWAblEDcr-13" edge="1">
          <mxGeometry relative="1" as="geometry" />
        </mxCell>
        <mxCell id="azjtCNszmvBXWAblEDcr-43" value="" style="rounded=1;whiteSpace=wrap;html=1;fillColor=none;dashed=1;strokeColor=#6c8ebf;" parent="1" vertex="1">
          <mxGeometry x="-60" y="60" width="450" height="430" as="geometry" />
        </mxCell>
        <mxCell id="azjtCNszmvBXWAblEDcr-44" value="" style="rounded=1;whiteSpace=wrap;html=1;fillColor=none;dashed=1;strokeColor=#666666;gradientColor=#b3b3b3;" parent="1" vertex="1">
          <mxGeometry x="400" y="60" width="320" height="430" as="geometry" />
        </mxCell>
        <mxCell id="azjtCNszmvBXWAblEDcr-46" value="&lt;font style=&quot;font-size: 15px;&quot;&gt;CRM&lt;/font&gt;" style="rounded=0;whiteSpace=wrap;html=1;fillColor=#dae8fc;strokeColor=#6c8ebf;" parent="1" vertex="1">
          <mxGeometry x="90" y="50" width="90" height="20" as="geometry" />
        </mxCell>
        <mxCell id="azjtCNszmvBXWAblEDcr-47" value="EPR" style="rounded=0;whiteSpace=wrap;html=1;fillColor=#ffff88;strokeColor=#36393d;" parent="1" vertex="1">
          <mxGeometry x="520" y="50" width="80" height="20" as="geometry" />
        </mxCell>
        <mxCell id="azjtCNszmvBXWAblEDcr-49" style="edgeStyle=orthogonalEdgeStyle;rounded=0;orthogonalLoop=1;jettySize=auto;html=1;entryX=0;entryY=0.4;entryDx=0;entryDy=0;entryPerimeter=0;" parent="1" source="azjtCNszmvBXWAblEDcr-15" target="azjtCNszmvBXWAblEDcr-2" edge="1">
          <mxGeometry relative="1" as="geometry">
            <mxPoint x="150" y="310" as="targetPoint" />
            <Array as="points">
              <mxPoint x="150" y="245" />
              <mxPoint x="150" y="310" />
            </Array>
          </mxGeometry>
        </mxCell>
        <mxCell id="azjtCNszmvBXWAblEDcr-50" style="edgeStyle=orthogonalEdgeStyle;rounded=0;orthogonalLoop=1;jettySize=auto;html=1;entryX=1;entryY=0.5;entryDx=0;entryDy=0;" parent="1" source="azjtCNszmvBXWAblEDcr-22" target="azjtCNszmvBXWAblEDcr-2" edge="1">
          <mxGeometry relative="1" as="geometry" />
        </mxCell>
        <mxCell id="azjtCNszmvBXWAblEDcr-51" style="edgeStyle=orthogonalEdgeStyle;rounded=0;orthogonalLoop=1;jettySize=auto;html=1;entryX=1;entryY=0.5;entryDx=0;entryDy=0;" parent="1" source="azjtCNszmvBXWAblEDcr-32" target="azjtCNszmvBXWAblEDcr-2" edge="1">
          <mxGeometry relative="1" as="geometry" />
        </mxCell>
        <mxCell id="8URkNJwg9QdLMNfsHHEc-1" value="PRODUCT" style="text;html=1;strokeColor=#d6b656;fillColor=#fff2cc;align=center;verticalAlign=middle;whiteSpace=wrap;overflow=hidden;rounded=1;" vertex="1" parent="1">
          <mxGeometry x="200" y="180" width="140" height="20" as="geometry" />
        </mxCell>
        <mxCell id="8URkNJwg9QdLMNfsHHEc-8" value="SLAES" style="text;html=1;strokeColor=#d6b656;fillColor=#fff2cc;align=center;verticalAlign=middle;whiteSpace=wrap;overflow=hidden;rounded=1;" vertex="1" parent="1">
          <mxGeometry x="-30" y="265" width="140" height="20" as="geometry" />
        </mxCell>
        <mxCell id="8URkNJwg9QdLMNfsHHEc-2" value="PRODUCT" style="text;html=1;strokeColor=#d6b656;fillColor=#fff2cc;align=center;verticalAlign=middle;whiteSpace=wrap;overflow=hidden;" vertex="1" parent="1">
          <mxGeometry x="490" y="160" width="140" height="20" as="geometry" />
        </mxCell>
        <mxCell id="8URkNJwg9QdLMNfsHHEc-6" value="CUSTOMER" style="text;html=1;strokeColor=#82b366;fillColor=#d5e8d4;align=center;verticalAlign=middle;whiteSpace=wrap;overflow=hidden;gradientColor=#97d077;" vertex="1" parent="1">
          <mxGeometry x="490" y="450" width="140" height="20" as="geometry" />
        </mxCell>
        <mxCell id="8URkNJwg9QdLMNfsHHEc-7" value="CUSTOMER" style="text;html=1;strokeColor=#82b366;fillColor=#d5e8d4;align=center;verticalAlign=middle;whiteSpace=wrap;overflow=hidden;gradientColor=#97d077;" vertex="1" parent="1">
          <mxGeometry x="490" y="320" width="140" height="20" as="geometry" />
        </mxCell>
      </root>
    </mxGraphModel>
  </diagram>
</mxfile>
